/* XPM */
static char *_467f6bbb2804744b62b0409ab9213537pTdkiMhXwXyjsH5[] = {
/* columns rows colors chars-per-pixel */
"32 32 125 2 ",
"   c #010101",
".  c #080401",
"X  c #67625E",
"o  c #6B6560",
"O  c #6F6A66",
"+  c #6F6E6A",
"@  c #736D65",
"#  c #736E6A",
"$  c #747166",
"%  c #76726A",
"&  c #7C746C",
"*  c #7F796F",
"=  c #7B7671",
"-  c #7F7972",
";  c #80776E",
":  c #81796F",
">  c #847C73",
",  c #887E75",
"<  c #847F7A",
"1  c #897F79",
"2  c #858076",
"3  c #898177",
"4  c #86827C",
"5  c #8C847B",
"6  c #8D887F",
"7  c #90877E",
"8  c #91887F",
"9  c #8C8681",
"0  c #8D8982",
"q  c #908780",
"w  c #938C83",
"e  c #988E86",
"r  c #928D89",
"t  c #918E89",
"y  c #908F8B",
"u  c #928F8A",
"i  c #908D88",
"p  c #948F89",
"a  c #958E8A",
"s  c #998E88",
"d  c #949085",
"f  c #979086",
"g  c #969186",
"h  c #989085",
"j  c #999087",
"k  c #9A9087",
"l  c #9B9187",
"z  c #989286",
"x  c #939089",
"c  c #969289",
"v  c #95908A",
"b  c #97908A",
"n  c #96918B",
"m  c #95928B",
"M  c #97938A",
"N  c #94918C",
"B  c #94908D",
"V  c #95928D",
"C  c #97928C",
"Z  c #94938F",
"A  c #97948F",
"S  c #96928A",
"D  c #999288",
"F  c #9B9289",
"G  c #98918B",
"H  c #9C9289",
"J  c #9D9389",
"K  c #9C938A",
"L  c #9D938A",
"P  c #989489",
"I  c #98948B",
"U  c #9B948A",
"Y  c #9D948B",
"T  c #9E948B",
"R  c #9F958B",
"E  c #98938D",
"W  c #99958C",
"Q  c #9B978C",
"!  c #9A968D",
"~  c #9B978E",
"^  c #9E958C",
"/  c #9F968D",
"(  c #9B948B",
")  c #9F998D",
"_  c #999490",
"`  c #989590",
"'  c #999691",
"]  c #9B9692",
"[  c #9C9791",
"{  c #9D9990",
"}  c #9F9890",
"|  c #9E9A91",
" . c #9C9992",
".. c #9F9A94",
"X. c #A0968C",
"o. c #A0968D",
"O. c #A0978E",
"+. c #A0968D",
"@. c #A1988F",
"#. c #A2988F",
"$. c #A3998F",
"%. c #A0988D",
"&. c #A29990",
"*. c #A39A91",
"=. c #A29B91",
"-. c #A09993",
";. c #A49A91",
":. c #A59B91",
">. c #A49B92",
",. c #A59C93",
"<. c #A69C93",
"1. c #A49B94",
"2. c #A19D94",
"3. c #A39C96",
"4. c #A59E94",
"5. c #A79E95",
"6. c #A39C92",
"7. c #A99F96",
"8. c #A9A097",
"9. c #A6A19D",
"0. c #A7A098",
"q. c #AAA198",
"w. c #ACA299",
"e. c #ADA39A",
"r. c #A9A29C",
/* pixels */
"                                                                ",
"                                                                ",
"        .       .                     .                         ",
"                          . .   .                               ",
"    . .   . .     . .       .     .     . .     .     . .       ",
"' m u 9 4 4 0 5 9 x u 0 0 p ' 9.' A 9 < 4 9 9 ' C C u 9 4 - = + ",
"9 - & & = 5 ' 2...{ e 6 0 6 w -.w m F C u 4 > < < u C 0 9 u 0 < ",
"m 6 w ~ ~ m m w w 3 - , w 6 5 e e m 2.r.-.m m C m E [ { C 9 4 4 ",
"% & 3 j f 4.-.w 6 7 3 > 5 3 > 3 w 7 1.{ w w 5 e 6 0 5 U 0 5 % $ ",
"w 6 > > : 3 5 w e w j Y K j K q.#.e 6 , > 3 , > > > w ~ ~ ~ { w ",
"7 3 > 3 w e e K w > 5 w 6 3 w ;.7 e 5 7 w 5 7 , > * 6 3 - > w w ",
"e w F o.w 7 w e 3 > 6 j e 7 3 6 w 7 : 7 -.#.4.<.w 6 > & - > - - ",
"6 3 8 e e w 8 , : , 6 7 K o.e K j w , ; ; & 3 e U e 6 3 3 * % $ ",
"& w ^ ^ ;.e 3 3 > K 7.<.e.e.j e 7 5 5 , w -.-.-.6 > 3 & @ $ w Q ",
"& , , , j w 7 8 e ^ Y 5 , , ; ; e K X.5 : > > > > & 3 8 6 0 d 4 ",
"w 5 3 , 5 w -.8.8.Y w , ; 5 j #.Y $.;.j > : > > > 3 & 3 4 U w 6 ",
"> > > w ^ -.2.0.w , 3 & > 3 s 7 6 5 6 ) <.=.-.e ^ U w m ~ 6 % @ ",
"- % @ % 3 w ~ F F w w 5 w w e o.F w 5 w j f e w 5 f w 3 > > & $ ",
"w 5 5 , > & e -.e F w 3 5 , > K ^ ^ #.Y U w , , 3 8 U m 0 5 6 0 ",
"3 > , F ^ 4.^ 3 , 1 & & > 1 & > , 5 ^ <.=.#.F F -.w w ~ 6 & $ @ ",
"* > & & & 6 e 3 , 6 7 5 ; > > e Y 6 e 7 ; & % @ & @ - 0 w w 5 = ",
"3 * & % & & , > 5 > 5 o.^ o.F -.w : ; ; % : > @ @ & 3 0 3 5 9 4 ",
"3 > , 6 w , 5 w q > & > > & : 6 w 6 3 6 e e e 3 % % & & @ @ > 6 ",
"3 e w w 3 , > > > > 5 w F w 3 q , 5 > , w q 0 w 9 > & & & = % o ",
"& - 4 0 0 5 < > % - 3 9 w p i 9 9 4 > - - < 9 i 9 4 > % @ O # = ",
"# - 9 i i 4 = % > 3 i m a i < & = = > < 4 9 i u - = # o X O = < ",
"  . . . .   .   .   .   . . .   .   . . . . .   . . .         . ",
"                .   .       .   . . .               .   .       ",
"        .                                                       ",
"                                                                ",
"                                                                ",
"                                                                "
};
