/* XPM */
static char *ac432bec62444e4ba6e1f4429d1efcbel1xm5k4LSsX7QGxi[] = {
/* columns rows colors chars-per-pixel */
"64 64 256 2 ",
"   c #350100",
".  c #3B0104",
"X  c #3C070D",
"o  c #2F0000",
"O  c #480203",
"+  c #5A0909",
"@  c #541213",
"#  c #6B0303",
"$  c #6A0806",
"%  c #740404",
"&  c #7A0907",
"*  c #7A130D",
"=  c #790D14",
"-  c #781618",
";  c #6C1617",
":  c #761D24",
">  c #6E1E21",
",  c #792325",
"<  c #7B2B38",
"1  c #702A35",
"2  c #6C1C21",
"3  c #7B2C41",
"4  c #7E3544",
"5  c #7F4150",
"6  c #820C0D",
"7  c #870C08",
"8  c #8B140C",
"9  c #87130B",
"0  c #93150C",
"q  c #9B1A0D",
"w  c #9A170B",
"e  c #860E14",
"r  c #841412",
"t  c #8B1414",
"y  c #84131B",
"u  c #8A151A",
"i  c #8C1C1C",
"p  c #861A17",
"a  c #931513",
"s  c #941B14",
"d  c #9C1C14",
"f  c #941B1D",
"g  c #9C1D1A",
"h  c #951517",
"j  c #950C12",
"k  c #A41B0D",
"l  c #A91D0D",
"z  c #A81808",
"x  c #A41D13",
"c  c #AA1E14",
"v  c #A31E1A",
"b  c #AA1F1B",
"n  c #A11512",
"m  c #A9160E",
"M  c #9E2115",
"N  c #9D221C",
"B  c #94221B",
"V  c #84201E",
"C  c #A8210E",
"Z  c #A42115",
"A  c #AB2115",
"S  c #A4221C",
"D  c #AB231C",
"F  c #AC2A1D",
"G  c #A52919",
"H  c #B1231B",
"J  c #B2271B",
"K  c #8D1421",
"L  c #851C21",
"P  c #8C1D24",
"I  c #891E2B",
"U  c #931D24",
"Y  c #9B1D23",
"T  c #961B28",
"R  c #961F32",
"E  c #A61E22",
"W  c #A71D25",
"Q  c #8C2326",
"!  c #8E252A",
"~  c #87272A",
"^  c #942324",
"/  c #9C2324",
"(  c #9C2925",
")  c #94242B",
"_  c #9B242D",
"`  c #94292C",
"'  c #9C2A2C",
"]  c #962C26",
"[  c #8C2B33",
"{  c #882736",
"}  c #932531",
"|  c #9B2632",
" . c #942B33",
".. c #9B2C33",
"X. c #942C3A",
"o. c #9C2D3C",
"O. c #88313B",
"+. c #953135",
"@. c #9D3236",
"#. c #94323D",
"$. c #9C333B",
"%. c #9C3A3D",
"&. c #9F322F",
"*. c #A42422",
"=. c #AB2522",
"-. c #A52924",
";. c #AC2B25",
":. c #A3252B",
">. c #A42B2C",
",. c #AB2D2B",
"<. c #AC262B",
"1. c #B22523",
"2. c #B22C24",
"3. c #B22D2B",
"4. c #BD2F2D",
"5. c #AD312D",
"6. c #AB3027",
"7. c #B1312D",
"8. c #BA372D",
"9. c #A22633",
"0. c #A32C33",
"q. c #AC2D33",
"w. c #A32E3B",
"e. c #AB2C3B",
"r. c #B22C33",
"t. c #A33235",
"y. c #AD3234",
"u. c #A3333C",
"i. c #AB343B",
"p. c #A33A3E",
"a. c #AD3A3C",
"s. c #AE3B36",
"d. c #B23434",
"f. c #B2353B",
"g. c #B33A3C",
"h. c #B83A39",
"j. c #BA4139",
"k. c #8D3444",
"l. c #8E3D4B",
"z. c #893945",
"x. c #923543",
"c. c #9C3443",
"v. c #953945",
"b. c #9B3B44",
"n. c #9C3549",
"m. c #943B4A",
"M. c #9C3C4C",
"N. c #933449",
"B. c #9D3D52",
"V. c #973E52",
"C. c #8F3248",
"Z. c #A33543",
"A. c #AC3542",
"S. c #A33B44",
"D. c #AB3B43",
"F. c #A3354A",
"G. c #A33C4B",
"H. c #AC3D4B",
"J. c #AB364A",
"K. c #B33C43",
"L. c #B43C4B",
"P. c #BB3D4A",
"I. c #B83843",
"U. c #A33E52",
"Y. c #AB3D53",
"T. c #AF3752",
"R. c #B93E51",
"E. c #A32E41",
"W. c #C03C49",
"Q. c #92424E",
"!. c #9C414D",
"~. c #944145",
"^. c #944352",
"/. c #9C4353",
"(. c #944C5C",
"). c #9C4B5C",
"_. c #9B4657",
"`. c #9A535C",
"'. c #8F4858",
"]. c #AD4245",
"[. c #A3424D",
"{. c #AB434C",
"}. c #A74548",
"|. c #B44144",
" X c #BB4144",
".X c #B4424B",
"XX c #BA434A",
"oX c #BA494B",
"OX c #A44354",
"+X c #AC4453",
"@X c #A34955",
"#X c #AC4B55",
"$X c #A3465A",
"%X c #AA4559",
"&X c #A44B5B",
"*X c #AB4B5B",
"=X c #B34452",
"-X c #B44A54",
";X c #BB4B55",
":X c #B34C5B",
">X c #BC4D5C",
",X c #B74457",
"<X c #A4545C",
"1X c #A8565C",
"2X c #BC535C",
"3X c #B6535C",
"4X c #984D61",
"5X c #9C5263",
"6X c #9E546A",
"7X c #A54D62",
"8X c #AB4C61",
"9X c #A74E6A",
"0X c #B64E65",
"qX c #A35364",
"wX c #AC5364",
"eX c #A55C65",
"rX c #A4546B",
"tX c #AC556B",
"yX c #A45A6D",
"uX c #AB5B6C",
"iX c #A95D67",
"pX c #B2556B",
"aX c #B75868",
"sX c #AB5B73",
"dX c #A65C72",
"fX c #B35D74",
"gX c #B75C77",
"hX c #AD656B",
"jX c #AC6274",
"kX c #AE6A7D",
"lX c #AD6479",
"zX c #B46175",
"xX c #B3637A",
"cX c #BB647B",
"vX c #B96778",
"bX c #B86E74",
"nX c #C34A4C",
"mX c #C3464C",
"MX c #C24C53",
"NX c #C34957",
"BX c #C7535B",
"VX c #C75665",
"CX c #CA576C",
"ZX c #C4697D",
"AX c #C2616A",
"SX c #BA5F80",
"DX c #BB6A84",
"FX c #B96987",
"GX c #BA7288",
"HX c #C56B86",
"JX c #C36C89",
"KX c #C76B86",
"LX c #C67389",
"PX c #CA7890",
"IX c #E37B88",
"UX c #DE8A99",
/* pixels */
"/.M.).(.kXyXtXqX).).fXxXqXrXyXsXsXyXrX6X6XrXrX7XuXqX).^.M.M.G.Y.G.n.v.M.M./././.9XfXFXsXsXfXsXDXsXfXxXsXlXfXFXDXDXsXGXFXFXgXuX/.",
"/.M.$X7XqXzXfXyXxXxXsXxXxXjXDXjXDXcXxXDXJXLXJXHXFXFXFXFXFXFXFXSXgXgXFXJXFXFXJXPXPXGXDXLXLXGXDXDXGXGXGXkXkXkXkXlXkXjXkXfXqX$X).).",
"<XM.U.N.8X8XLXkXdXjXDXDXxXjXjXjXsXyXsXlXlXyXrXtXyXsXjXjXjXdXyXyXyX5X5X5X5X5X5X4X4X4X4X6X5X4XyX5X(.4X(.(.'.(.'.(.'.(.(./.l.x.m.&X",
"<Xv.U.U.N.n.U.).uXqXrX)._.5X^._._./._.)._.V.B.$X5X5X5X5X5X5X5XeX5X5X5X).).).).)._.).5XqX).(.(.^.).5X5XqX5X).).).(._.(.M.k.n.@X7X",
"&XM.OXcXM.c.Y.U._.&X).)./.m././.^.^.Q.Q.Q.Q.l.l.Q.^.Q.l.m.l.l.m.^.l.z.k.k.k.k.{ k.O.O.O.O.< < z.4 4 z.4 z.z.4 3 < O.Q.M.v.n.OXN.",
"wXM.8X_.wXF.J.J./.v.x.k.k.k.x.k.O.k.k.x.N.M.M.M.Q.Q.m.m.m.v.v.v.k.m./.M.v.v.!././.M.!.m.Q.^.k./.).).7X_.7X7XwX7X&X/.&XU.v.M.*XB.",
"@XM.M./.aX%X+XG.G.M.aXgXaXfXgXZXcXcXcXzXfXvXcXZXJXJXHXHXHXKXHXKXPXLXKXHXHXJXJXDXHXLXZXvXHXPXHXfXcXcXgXpXgXgXgXpXU.U.&XB.m.n.@XOX",
"aXx.U.8X$XU.*Xv.U.G.OXpXpXpXgXpXpXpXgXcXZXZXgXtXtXwX&X&X@X/.~.l.l.l.z.z.O.z.z.z.3 3 3 3 3 l.fXcXxXxXtXtX9XfX7XB.Y.+X@XOXm.v.v.M.",
"rXOXwX*Xb.OX/.J.m.+XL.=Xz.4 9XsXrXcXcXaXz.@     .   .     .   .                 . o . .     X 1 ).fXFXFX0X,X> C.B.B.&XM.x.n.m./.",
"uXc./.&Xz.n.$XS.*Xn.L.H.@XpXCXcXZX8X< .   O ; : ; , 2 , , , , , : { ~ ~ [ [ ~ { ~ ~ , ~ [ - @     @ 5 sXvX&XT.T.*XB.$Xn.x.c.&X$X",
"jXc.OXuX<XG.8Xb.U.M.+X:X+X,XaXl.@ O O + -  .P } t.y D.L ..P ^ D.Z.D.P | ..) Z.y a.U 0.+.L $.L - : O   . l.wXY.U.aXOX$XF.x.c.wX@X",
"uXS.!.&XaX+X%XG.OXM.*X3X+X0Xv.O + + ~ ! u.{.{.{..X>XH.-X.X,X;XL.D.=XBX.X.X-XH.BXL.>X-XA.H.S.;XL.} = , @ 2 fXjX:X0X%X&Xn.x.S.*Xv.",
"uX{.@XOXaX:X8X+XM.G.:X:X:XaX, O U _ u.2X#X}.%.}.F.o.{.o.S.H.A.A.H.L.w.i.A.i.D.w.Y.#.#.=XR.L...G.=X=X@.; O $XLX*XOXOX&Xn.x.H.@Xv.",
"wXb.!.M.OXOX&XZ.OXR.R.+X0X:X; Q  .].H.u._ _ i.w.D.) .X0.t.0.' XX>X.XD.a.i.A.D.J.,Xw.K.D.a.K.K.! o.S.+.o.- { VXqXpXOX_.G.b.n.v.8X",
"zXZ.M.$X!.c.*XS.@XH.CX3X:X$.$ a.i.a.P ..u.XXP.I.K.I.XXg.I. Xg.h.;XS.;XoXa.XX.XH.I.W.I.K.a.g.f.g.u.| A.I.: + ,XvXcX$X).U.!.X.v.wX",
"uXZ.G.gX1XZ.:X}.^.S.*XaX3XL - i t..XK.P.g.g.s.g.A.L.i.I.g.f.g.y.L D.^ :. Xg.I.XXL.].].I.I.I.y.I.D.{.L. .p # #.0X&X&XqXU.!.X.M.N.",
"sX$.[.7XOXG.b.b.[.Y.2XaX{.$ S.y..X..t.a.a.g.g.g.g.g.g.f.f.f.d.d.CX.XBX;XI.K.D.XXa.g.f.I.K.i.f.f.f.w. .Y.A.! ; :X-X+X*XG.M.X.#Xb.",
"xX$.[.$X*X:X[.:XOXOXS.aX..$ y >.P t.g.K.a.y.i.g.f.f.f.f.f.f.d.d.Q ..) @.P.L..XK.XX XI.I.g.i.d.d.d.i.u.o.0.= $ +X+XG.&XG.m.{ b.[.",
"tXb.b.7X*XG.#XG.G.M..XaXL ] XXg.oX>.f.g.y.g.i.f.d.d.d.d.d.d.d.d.S..X|.D.I.K..XP.oX Xf.f.g.i.f.d.d.f.' L.K.Z.- S.:XU.&XU.!. .#.U.",
"pX$.#XuX@X[.*XG.{.*XMX;X! p q.-.>.q.d.f.i.y.y.y.y.y.y.d.d.d.7.7.D.i.XX|.f.XXD.I.g.g.y.f.g.g.h.d.5.q.a.u./ ` ; H.:XOX&X%X!.#.v.U.",
"wX .[.wX[.b.%XG.G.OXK.;X .* :.6.>.d.d.d.d.y.y.y.y.5.5.7.7.7.7.7.^ >.) _ g.K.K.I.g.f.y.f.f.y.d.5.7.f.' U ,.P - J.+XOX&X%Xv.#.@XOX",
"7Xp.#.wXaXG.#X+X[.OXK.;X..] nXj.nX>.d.y.y.s.y.d.5.5.7.7.3.3.7.7.t.i.BXXXq.f.a.f.g.f.d.d.y.y.d.d.;.,.s.BX:..X- {.:X+X@XOX#.o.*XM.",
"7X$.S.OX:X:XU.+X!.OXH.{._ * i g i y.y.y.y.>.,.d.5.5.5.3.3.3.3.3.' f.u U g.g.|.f.g.f.d.d.y.y.d.5.7.,.( e g y $ D.aX+X/.G.#.X.[.c.",
").].S.M.G.=X8XOX!.G.;XAX_ ] a.h.oXy.y.,.y.y.,.7.5.,.,.3.2.2.3.,.MXq. XK.>.f.i.f.f.f.r.d.y.y.5.,.;.,.6.K.,..Xp J.:XG./.n.#. .#.c.",
").u.t.w.R u.{.%XG.[.D.VX' p >.,.t.0.y.5.5.5.,.,.,.7.6.2.2.2.;.;.! _ t.,.r.,.a.f.f.h.d.q.q.5.6.,.F =.3.>.*.) = A.S.[.%.w.v. .c.#X",
"Q.S.t.H.A...#XOXc.G.D.+X( y -.>.' y.,.>.5.5.,.,.,.5.;.;.2.2.;.,.` 0.0.,.3.,.g.f.y.d.d.r.y.6.2.;.G =.2.' *.$.-  .ZX#Xb.o.v.o.G.b.",
").H.t.+XJ.o.#X%Xb.[.D.2X^ ` h.d.nXy.d.5.>.5.-.5.,.,.,.;.=.;.,.,.2Xa.K.K.;.;.5.d.y.d.3.r.3.;.F F F =.D oX,.p.= G.PX@X~.X.#.X.S.X.",
"&XZ...S.o.H.G.%X[.[.D.+X( % 0 g t >.q.5.5.-.,.,.7.,.,.;.=.;.7.,.- 0.U f 2.3.-.d.y.d.3.r.3.D A A F D F y :.* $ :XcX!.b...#.$.S.%.",
"/.u.u.G.c.-XS.U.x.OX.XVX^ ` h.5.BXq.y.5.-.5.,.5.7.,.,.;.=.3.d.y.BXi.oXnX=.2.;.=.d.7.3.r.3.A A A D A F MXr.|.p H.CX#XS.| %.$.$.b.",
"/.H.].#X+X{.{.G.b.[.D.+X/ % d *.f >.>.,.,.,.,.;.,.,.,.=.=.;.,.,.Q w._ f S ;.=.1.,.2.=.3.;.A C A H D ;.P <.u % $.0X:XS.9.$.X. .b.",
"@XH.p.@X%Xc.[.G.b.G.u.-Xf u 5.,. X>.q.5.-.-.;.,.,.,.,.F F =.=.=.u.0.a.y.3.3.*.3.<.;.=.,.;.Z l c c ;./ L >.L.r ^ {.S.$._ +.} c.!.",
"@XD.+.*X*Xc.b.G.$.G.a.H.f i 5.>.g.y.>.,.-.,.,.;.>.,.,.=.2.2.=.;.-XK.K.y.=.=.;.3.;.2.=.r.3.D l c A >.' [ f | & &.aXS.@._ ~ I {.b.",
"$XH.` +X*XG.n.OXu.OXa.VX/ & i v h ;.,.;.,.q.;.5.,.r.;.=.2.F 3.2.h *.f D 3.w.3.r.1.3.r.r.d.=.2.c c D ;.+.>.u & :..XS.0.) !  .H. .",
"B.S.u.$.[.:XS.G...[.i.=Xf ^ oX7.NX:.VXq.P.>Xq.MX| VXt.XXXXy.BX0.>Xa.>XXXi.VX:.mXf.f.mXe.VX9.mXr.8.h.q ;X*.oX* ^ D.$...K !  .u.[ ",
"B.S.D.$.#.=XZ.H.t.%X' o.Y % r d t 5.9 -.f i -.r ,.t Z s s =.r ,.p ( ] B N 7 D 8 0 d t >.r *.s d s a v 6 E e $ ' D.$.$.^ ! P ) [ ",
"/.S...u.$.) ..F._ b.y.H.f i  X3.VX:.BXf.P.,Xi.VXq.2Xh.K.MXq.CXi.;XP.L.XX:.BXW MXf.P.|.e.MXq.XXf.g.nXb nX=.K.* p.{.+...^ ` Q ) $.",
"zX[.` S.2X@.p.o.0.G.,.,Xf % B S h D N D S / ;.s D B x N s ;.i 5.i g ^ B G 0 x r d w s v 7 v a q h h v * g u # 0.2X+. .^ ! ) t.u.",
"yX@X@.S.S.@...c./ S.,.;XY r ' S g.D *.D =.>.=.*.A S c S =.c :.=.s.d.0.h.x x D g x J x b D D S D D v v |.*.0.p 0.-X$.$.^ ! ) t. .",
"kX3X) u.$.D...$._ S.>.D.f r >.=.g.D *.D 3.<.1.r.F *.D =.,.D >.-.Z.u.F.q.H H z b c x =.b S b S c c v D ( h | % | Z.#.@._ ) ^ 0...",
"DXwX@.u.D.....Z.Y S./ w./ % r d t S ;.D 1.r.4.3.2.D A 1.2.2.b =./.UXUX0.c x z c l D D 1.S D x l F 7.2.f =.Y $ ) D.$.) U ) i ' @.",
"bXtXS.S.{.....S.^ Z.` K.f t |.5.MXF A D A =.^ I I L V p i ,.=.H P.IXIXf.1.x Z c l x c D S x Z D y.[ h.XX^ I.% ..;X..` ) U U  .$.",
"bX@X$.p.{...t.c...Z.t.XX_ % e a y D D =.D D q.w.D.' ( ( t.0.*.v A., : K.n c Z c l c D F D Z x S Y $ v 6 s e % ..{.u.....) ) $.$.",
"bX&X} @.+Xu.) G.>.Z.] g./ 7 g.;.XXc 2.;.x 2.q.y.7.D =.;.f.y.>.*.~.    %.S k c c c x D F D Z x v g p b MXN I.r @.S.p. .) U ) ].S.",
"hX@X} p.{.-X` G._ $.^ :.Y & f d 0.D D *.D c =.=.D c H D d.q.>.h w.; > ].j m A x x x b D x x v S *.^ v & N u % ` D.u....._ | u.` ",
"hX*XH.S.X.=Xu.c.' D.' i./ & Y *.,.A S *.D c b b F D D x 3.,.D 7 _ 2X#X' j z x S c v v v x x S =.x f D |.N t.r ' D...` ` _ ) P L ",
"bXwX=X$. .....c._ F.^ A.Y & g.;. Xx D *.k A A A S A A x ;.=.S w - + O - 0 k x S x v v S S S S *.=.*.=.0.h P % ..oXu... .) ) ' p.",
"`.*XG.+.}.} P u.| Z.t.K.w.& e a e c A S l z D D x A A S *.v Z w 6 % & 7 d w D x v v S S S S S *.v E v ^ *.) # ..D.u.} ` U K ^ ..",
"<XwX}.$.#XD.' u.T F.p.A.| 6 K.,.nXD A D l l x Z l A k Z *.*.D w s.0.:. Xd k k D v v S S S S S *.v W *.|.:..X= R w.u.) ) ) U ..` ",
"hX@X+.}.@.t.) $.Y u.t.A._ & & d 7 q A c x l l A l x A D D D S v t r f 8 D x c x S S S S S S S S M v N e 8 & # U t.|  ._ U U t.^ ",
"hX@X$.].u.A...$.K Z.u.K.| & g.*.P.S A H x z k c l l x Z Z S S v g.K.q.nXE v v D S v S S S S S v d v g K.*.a.* ) L... .T ^ f ^ ( ",
"qX[.{.$.H.o.w.Z.T Z.0.,X9.% / g :.D A x c k z A l l x x x x S S / / >.s F D k Z S v S S S S S v d v g u s u # U D.0...U ) T ) $.",
"qXM.Z.}.{.G.o.c._ E.A.A.9.& f S :.d A D x k l c l z l x k x x A 0.' Y y.E S =.=.S v S S S S S v d v N 0.g | * P @.0.@.U ! K ) $.",
"eXx.c.S.3XG.o.c.:.| | i.:.% ,.S I.=.x c x l A x l l x x k k x x i.t.:.i.E S b S x x v S v v S v d v N w.g | * P o._ ) P Q K o.S.",
"eXv.$.#X@X+XX.S.i.Z.t.e.Y 7 6 d 6 d A c c k l F c l x Z x k x x t r f 8 x Z x x v x v S v v S S g E N K g K $ I $.0.) L L T A. .",
"hXb.u.H.[.#XS.c._ o...I.Y % K.S nX=.w b b x D x A x x Z x x x c a.a.q.nXx v b v x x v S v v S v g W N .X>.K.- } [.A.u.P Q Y :.L ",
"eXb.Z.Z.X.{.Z.$._ F...L.0.& & g 6 d k x x k x n x k x x d x x x t r f 8 k q c q x d d g g g g g N E g = t = # } [.|  .! Q j u ` ",
"eXB._ _ R S.$.c._ o.t.e.9.7 >.*.d.S y.3.S g.S g.D 2.,.D g.S h.*.-.g.<.h.q mX;.r.,.;.g.:.I.:.y.y.:.XX:.D.*.i.= } t.#. .P i t Y J.",
"iXM.0.0.J.#X$.c...c...9.T % 0.*.i.Y 9.>.:...f 0.*.*.>.g 0.g >.f / ' :.0.g ^ / _ g / / / / / Y / / | f $.t K = I t. .[ P P t T ) ",
"eX/.| u.J.3X+.c...G.+.L.9.& = / ^ N ' / f ^ N ( N S ( d ( M ( d S / x / x N S g >./ y./ 0.Y ,./ N ' g ` N 0.$ ` K.u.X.) ) ) W U ",
"eX/.) u.o.#X$.$. .#.+.L.A.% ..>.=X9...f.>..X/ D.:.,.0.*.D.h I.*.>.i.Y a.d g.*.0.,.>.,.>.>./ -.*./ t.*.$.f ) - { a.0.~ K ) ! Y U ",
"eXm...S.S.b.p.$. .G.p.e.9.* = i r g s 0 N r S 9 s w g q 9 C 8 q a 8 N t Z 7 q 0 s g a N 8 d 0 0 q 7 x r q t # ` | _ [ K } X.h ..",
"1Xm.o.=X+Xm.%.u...o.@.9.0.& u.i.-Xy./ =.*.9.v *.v S N x *.w *.x r.mX:.XXD W 1.Y S S S M x x Z d d g g D.=.e.- } | U ) e ! [ K $.",
"<Xx.o.{.%X@X+.u.$.c.@.i.0.& - ^ P d N Z S >.Z Z x Z M C S l S x s r B p 0 -.M N N S M x x Z d M Z M Z & 0 t $ } w.) ^ t P  .| b.",
"<Xx.c.X.%X&X .$...c.@.u.| * Q ` ../ / S *.Y D S S x N Z N A g v 9.D.^ ].S g S / g S d d d M d N q s q t.S | - { Z.) Y u L  .n.#."
};
