/* XPM */
static char *_e679748e7514ab2f8efaa03f1fa729aHxGcxaFMWAhNDYva[] = {
/* columns rows colors chars-per-pixel */
"32 32 44 1 ",
"  c #47704C",
". c #062027",
"X c #0D3D4D",
"o c #0D3947",
"O c #07222B",
"+ c #07222A",
"@ c #08252E",
"# c #092A35",
"$ c #08262F",
"% c #0A2E39",
"& c #062128",
"* c #0A2E3B",
"= c #07232B",
"- c #082631",
"; c #07232B",
": c #08262F",
"> c #092A35",
", c None",
"< c #08252D",
"1 c #104557",
"2 c #082832",
"3 c #114151",
"4 c #30BEF7",
"5 c #2EBBF4",
"6 c #2FBCF6",
"7 c #2AA8DB",
"8 c #1C7395",
"9 c #2187AF",
"0 c #17617D",
"q c #2FB9F0",
"w c #2B93B8",
"e c #2490BC",
"r c #9ADFFB",
"t c #94CBE1",
"y c #29A3D4",
"u c #55B7DE",
"i c #2698C6",
"p c #2CB0E6",
"a c #30BFF9",
"s c #1C6D8C",
"d c #30B7EC",
"f c #51C7F7",
"g c #2580A0",
"h c #64CEF8",
/* pixels */
"                                ",
"       =&...............&O      ",
"     O-*oXXXXXXXXXXXXXXXo#;     ",
"     -,e77utuuttttttu777y8*=    ",
"    =*ea66frhfrrrrrrh6664p1;    ",
"    &o7655555555555555555io&    ",
"    .X7656y00000000000000X-     ",
"    .X76549*+++++++++++++;      ",
"    .X76549#                    ",
"    .X76549#                    ",
"    .X76549#                    ",
"    .X76549#                    ",
"    .X76549#OOOOOOOOOOOO        ",
"    .X76549>%%%%%%%%%%%#:=      ",
"    .X7656peeeeeeeeeeee902O     ",
"    .X76556444444444444ayo&     ",
"    .X765564444444444444io&     ",
"    .X76567888888888888s1:      ",
"    .X76549>$$$$$$$$$$$@<O      ",
"    .X76549#                    ",
"    .X76549#                    ",
"    .X76549#                    ",
"    .X76549#                    ",
"    .X76549#                    ",
"    .X76549#                    ",
"    .X76549>@@@@@@@@@@@@@+&     ",
"    .X76567888888888888880*.    ",
"    &oy455644444444444444q0:    ",
"    =*9dqqqqqqqqqqqqqqqqqds2    ",
"     -,gwwwwwwwwwwwwwwwwwg3<    ",
"     O-*ooooooooooooooooo*-O    ",
"       =.................=      "
};
