/* XPM */
static char *ac65b35fc00b4da884cafa209dbb1f43sAPmWsZJPK4OgQKj[] = {
/* columns rows colors chars-per-pixel */
"32 32 236 2 ",
"   c #020102",
".  c #080501",
"X  c #010209",
"o  c #0C0D08",
"O  c #100F0B",
"+  c #0F100B",
"@  c #1C140F",
"#  c #1A0A14",
"$  c #1B1411",
"%  c #1C141A",
"&  c #1D1A16",
"*  c #0E0B12",
"=  c #24140F",
"-  c #28170F",
";  c #241914",
":  c #241A19",
">  c #251713",
",  c #371D14",
"<  c #1C261F",
"1  c #2E271E",
"2  c #3B2D16",
"3  c #251E23",
"4  c #3A1D23",
"5  c #1A2B2B",
"6  c #232C2B",
"7  c #2B2724",
"8  c #352321",
"9  c #3A2923",
"0  c #322A2B",
"q  c #392826",
"w  c #28332D",
"e  c #3A3026",
"r  c #3A352A",
"t  c #2C2F33",
"y  c #252E39",
"u  c #372934",
"i  c #233234",
"p  c #2B3236",
"a  c #323533",
"s  c #3B3232",
"d  c #3F3B31",
"f  c #393539",
"g  c #333A3A",
"h  c #3A3A3B",
"j  c #363835",
"k  c #432C1D",
"l  c #41261D",
"z  c #562E1E",
"x  c #44341E",
"c  c #4A391D",
"v  c #58351D",
"b  c #61381D",
"n  c #571B27",
"m  c #631E2A",
"M  c #462B28",
"N  c #5A2E25",
"B  c #5D2529",
"V  c #5D2D2D",
"C  c #552828",
"Z  c #463524",
"A  c #4B3522",
"S  c #443925",
"D  c #4B3A23",
"F  c #45322C",
"G  c #4D332D",
"H  c #463C2B",
"J  c #4E3B2C",
"K  c #543527",
"L  c #5A3524",
"P  c #5D3925",
"I  c #53342A",
"U  c #5C3C2B",
"Y  c #563A29",
"T  c #412B34",
"R  c #5B2831",
"E  c #433533",
"W  c #4D3431",
"Q  c #453B33",
"!  c #4C3B31",
"~  c #433E3A",
"^  c #473A3C",
"/  c #553D33",
"(  c #5C3B34",
")  c #5B393D",
"_  c #553334",
"`  c #632325",
"'  c #62242C",
"]  c #6A222C",
"[  c #632C2C",
"{  c #692926",
"}  c #70292A",
"|  c #623526",
" . c #62332B",
".. c #6B322C",
"X. c #633C2B",
"o. c #6B3928",
"O. c #682A33",
"+. c #732A32",
"@. c #643B34",
"#. c #693936",
"$. c #753535",
"%. c #77342B",
"&. c #3E403F",
"*. c #49442C",
"=. c #5A452D",
"-. c #57452C",
";. c #4B4237",
":. c #4D443D",
">. c #46443B",
",. c #534434",
"<. c #554836",
"1. c #53463B",
"2. c #5A423C",
"3. c #53493B",
"4. c #5D4938",
"5. c #565939",
"6. c #64432E",
"7. c #6D492E",
"8. c #654433",
"9. c #6D4132",
"0. c #634D33",
"q. c #694837",
"w. c #67553D",
"e. c #6B543D",
"r. c #7C5732",
"t. c #765439",
"y. c #755A3A",
"u. c #7D5A3B",
"i. c #795836",
"p. c #785233",
"a. c #77603E",
"s. c #343C44",
"d. c #3C3D40",
"f. c #263741",
"g. c #433F40",
"h. c #4E3F42",
"j. c #5D3A40",
"k. c #3D4444",
"l. c #3A4249",
"z. c #3C4B4B",
"x. c #374548",
"c. c #3C504D",
"v. c #394B56",
"b. c #3D5255",
"n. c #3D5558",
"m. c #434343",
"M. c #414A46",
"N. c #454D4D",
"B. c #494A4B",
"V. c #494548",
"C. c #594D43",
"Z. c #544847",
"A. c #4E504E",
"S. c #485248",
"D. c #5B5344",
"F. c #5C554D",
"G. c #565448",
"H. c #4B4D52",
"J. c #444C53",
"K. c #435554",
"L. c #4A5456",
"P. c #43535A",
"I. c #4A595C",
"U. c #4B5658",
"Y. c #545852",
"T. c #625A4B",
"R. c #6C5C4D",
"E. c #675746",
"W. c #775E42",
"Q. c #7D5B41",
"!. c #755648",
"~. c #685D54",
"^. c #715D52",
"/. c #6B624C",
"(. c #7D6244",
"). c #73654E",
"_. c #786549",
"`. c #686656",
"'. c #736354",
"]. c #7A6453",
"[. c #756854",
"{. c #7C6C53",
"}. c #7D6B5C",
"|. c #76675B",
" X c #7B7456",
".X c #7D725B",
"XX c #7B6A62",
"oX c #853431",
"OX c #835634",
"+X c #825C35",
"@X c #8A513D",
"#X c #835B3C",
"$X c #8B5C3C",
"%X c #8D5636",
"&X c #84633B",
"*X c #89623B",
"=X c #866137",
"-X c #825C43",
";X c #8A5942",
":X c #846443",
">X c #866846",
",X c #8C6A45",
"<X c #86654A",
"1X c #8B6749",
"2X c #946745",
"3X c #8A734D",
"4X c #95774C",
"5X c #846E54",
"6X c #876B59",
"7X c #837253",
"8X c #85745B",
"9X c #8A735B",
"0X c #8B7C5C",
"qX c #887757",
"wX c #917259",
"eX c #907852",
"rX c #946958",
"tX c #A1785A",
"yX c #8C7A62",
"uX c #887768",
"iX c #917C6E",
"pX c #837971",
"aX c #8A6E62",
"sX c #A47963",
"dX c #978274",
"fX c #8F8672",
"gX c #AE8360",
"hX c #A3877C",
"jX c #A68A7D",
"kX c #B3816A",
"lX c #989687",
"zX c #AA9587",
"xX c #B3988A",
"cX c #AA9E92",
"vX c #A69990",
"bX c #A68D88",
/* pixels */
"              .                                         X       ",
"        . X   .       . .         . . .                         ",
"              .   .     .         .   .               .     . . ",
"8 q M 9 8 7 :.4.l F d.k.k.6 $ : $ > 8 E F F F F h f :./.T./.R.C.",
"W W W I ! h `._.9.8.A.N.N.i : 3 < & r H Z A J J m.~ E.0X8X0X9X^.",
"[ V [ [ _ E R.7.v | B.B.m.s.e a s q G U P P P L B.m.E.7X5X7X7X!.",
"B V [ [ _ h `.7.X.6.J.N.h J.].pXpXXX/ Y L P Y Y k.d.T.7X8X7X7X!.",
"' B B m R f `.6. .P v.z.5 l.6XxXbXjXK N z L K I k.d.F.{..X{.7XE.",
"@X@X;X-X-Xt.1X:Xr.$X5X_.w.~.wXkXgXtX(.OXr.%Xr.u.a.W.<X2XeX4XwX2X",
"D D x Z D w.w.0.e.6.d e P I c c r / =.q.3.1.1.=.#.( >.W.e.J 3.1.",
"o + O . & ;.D.C.G.~ i ; ` ` N ! g F.{.].M.l.k.^ O.) v.yX'.a h s ",
"E Z.Z.Z.q C.D.D.D.Q y 4 } } ../ a R.0X8XS.V.B.h...( b.0XR.s.g.E ",
"|.cXvXcX<.). X7XeX<.t q ` ` | -.h R.8X5XS.N.H.^ } ( n.fX/.s.g.E ",
"`.lXfXlX*./.8X_.eXH 5 s ' m { Y f.F.7X}.b.v.P.V.+.) v.uX'.u d.g ",
"|.vXlXcX4.].5X9XyX<.w H #.$.$.8.m.R.3X9XY.H.A.4.$.q.Y.yX}./ :.*.",
"u.-XQ.:Xa.&X&X+X-X@XQ.+XOXt.p.i.y.#Xi.#Xy.Q.(.u.#Xy._.+Xy.i.W.u.",
"9 - 5.E 0 o.k.V.4 M M u = S *.<.M A k A - $ % % & & g.j 0 M 9 0 ",
"/ 9  Xm.f %.B.H./ G W _ ; ).fXyXI X.o.6.k ; : > $ 7 l.M.;.I J Q ",
"/ F uXg f %.A.H.] [ ' O., ).9X/.e @...( 1 $ $ $ = t P.V.G | #.V ",
"b U 9X7 F oXZ.V.]  .[ B J  XqX5., o...6.Z }.aXiX!.0 K.>.A v b P ",
"z ,.^.< s #.k.J.m C ' n 2.8XaXd , X.L A k dXjXzXuXt b.h M L z N ",
"OX:X<X4.t.@XR.].@X#X@X@X<X4X,X0.t.u.+XOXi.sXsXsXrXE.[.w.t.u.u.y.",
",.,.! =.7.6.=.K r *.x A Z D -.C.Z.;.8.9.@.Q :.1.-.-.Y =.U |  .U ",
"x.x.x.~.].`..X( * # # % * i K.v.v.N.) V M i n.z.w T.[.}.E T T 0 ",
"k.z.g G.8X7X7X/.3 f t a 6 g L.L.P.K.@.} Z i U.N.a /.8XqXU [ V F ",
"s.x.s.~ 8X5X8X[.r T.T.F.F.h L.K.v.P.j.+.W i I.z.a '.9XyX .] O._ ",
"l.l.k.7 {.5X5X5XS dXxXzXiXd M.c.n.I.) +.G t I.c.a ~.8XuX( O.B C ",
"M.k.m.1 /.{.{..X3.fXhXhXiX:.Y.I.K.L.2.@.J j U.S.r ).9X0X6.[  .@.",
":X>X>Xi.*X*X=X&X#X2X+X$X2Xu.<X(.>X<X2X$X*X(.1X:X(.>X,X,X*X;X;X#X",
"      X   X     X           .     X X     X X       .           ",
". . . .       . .         . . . . .       . . . .   .           ",
"                                                              . "
};
