/* XPM */
static char *_060b90c32024e29eaafc187ef4cdaceeQAmyxF5fVxQf1e2[] = {
/* columns rows colors chars-per-pixel */
"32 32 59 1 ",
"  c #47704C",
". c #041C23",
"X c #072027",
"o c #0E3C4C",
"O c #092A34",
"+ c #11475C",
"@ c #07232A",
"# c #072027",
"$ c #07222A",
"% c #082832",
"& c #0B3340",
"* c #07242D",
"= c #07242C",
"- c #0A2D37",
"; c #07242C",
": c #144D61",
"> c #0A2F3B",
", c #082730",
"< c #07242C",
"1 c #08252E",
"2 c #08262F",
"3 c None",
"4 c #07232B",
"5 c #0D3745",
"6 c #07222A",
"7 c #07242D",
"8 c #0F3E4F",
"9 c #0D3846",
"0 c #08262F",
"q c #0A2C36",
"w c #2FBBF5",
"e c #2FBCF6",
"r c #2AA8DB",
"t c #30BEF8",
"y c #2FBCF5",
"u c #2185AD",
"i c #18627E",
"p c #2DB2E8",
"a c #2893BD",
"s c #2FB8F0",
"d c #2DADE0",
"f c #1F6D89",
"g c #1F7797",
"h c #278DB2",
"j c #2DBAF3",
"k c #57C7F5",
"l c #B9E9FD",
"z c #8ECBE4",
"x c #28A0D0",
"c c #2CAFE4",
"v c #186584",
"b c #2289B2",
"n c #6FD1F9",
"m c #104558",
"M c #3BC0F5",
"N c #D4F3FF",
"B c #4B98B7",
"V c #559DB9",
"C c #8AD9F9",
/* pixels */
"                                ",
"      4$*              4$*      ",
"    .;-o&,*           1-o><.    ",
"    ;8urx3%4         $>gra81    ",
"   =-utetd:<         ;3setg,    ",
"   $9xewwta&7        @iwwtuO.   ",
"   Xorewwwwf%=       @iwwtuO.   ",
"   Xorewwjnz+<       @iwwtuO.   ",
"   Xorewwjkla&X      @iwwtuO.   ",
"   XorewwywMkf%=     @iwwtuO.   ",
"   Xorewwpjylz+;     @iwwtuO.   ",
"   XorewpihekNV&X    @iwwtuO.   ",
"   XoreypmmdyClf%=   @iwwtuO.   ",
"   Xoreyp+>fjMlz+;   @iwwtuO.   ",
"   Xoreyp+<&aekNB>X  @iwwtuO.   ",
"   Xoreyp+6<:dynkv%. @iwwtuO.   ",
"   Xoreyp+#=Ofjjer+; @iwwtuO.   ",
"   Xoreyp+# 75aeweb>$@iwwtuO.   ",
"   Xoreyp+#  @:dywsi,@iwwtuO.   ",
"   Xoreyp+#  40fjwer+0iwwtuO.   ",
"   Xoreyp+#   65aewebqiwwtuO.   ",
"   Xoreyp+#    2:dywsivywtuO.   ",
"   Xoreyp+#    *-fswycrwwtuO.   ",
"   Xoreyp+#     #5aywyewwtuO.   ",
"   Xoreyp+#      23dywwwwtuO.   ",
"   Xoreyp+#      *-gswwwwtuO.   ",
"   Xoreyp+#       18awwwwtuO.   ",
"   Xoreyc+6       .,3rywwtg%    ",
"   *>hssa5X        *-fdsspi2    ",
"    2:hh3%=         6&ihag97    ",
"    *,&&%$           7%&9-1     ",
"     .$$.             =$X4      "
};
