/* XPM */
static char *_716310de94445c4f88e4118199c79a4GEphTeJitoRKD8oh[] = {
/* columns rows colors chars-per-pixel */
"32 32 61 1 ",
"  c #47704C",
". c #07232C",
"X c #07222A",
"o c #07222A",
"O c #0F3F50",
"+ c #072129",
"@ c #07232B",
"# c #07222A",
"$ c #07222A",
"% c #0C3644",
"& c #0E3F50",
"* c #07252D",
"= c #07222A",
"- c #0A303C",
"; c #0D3948",
": c #11485B",
"> c #092A34",
", c #07252E",
"< c #0A2F3A",
"1 c #0C3442",
"2 c #0A2C37",
"3 c #134D62",
"4 c None",
"5 c #07242C",
"6 c #08242D",
"7 c #07242D",
"8 c #092832",
"9 c #092832",
"0 c #07232B",
"q c #082730",
"w c #2FBBF5",
"e c #2FBCF6",
"r c #2FBDF7",
"t c #1C6B89",
"y c #2EBAF3",
"u c #2BABDE",
"i c #2DB3E9",
"p c #29A1D1",
"a c #2FB9F0",
"s c #1F7090",
"d c #2AA6D7",
"f c #2EB6ED",
"g c #2691BB",
"h c #1A6480",
"j c #1F799B",
"k c #185B73",
"l c #2581A5",
"z c #268DB4",
"x c #2797C3",
"c c #2DB0E5",
"v c #2699C8",
"b c #175E7A",
"n c #2387AD",
"m c #3BBFF5",
"M c #C7EDFD",
"N c #75D3FA",
"B c #5BC9F5",
"V c #AFE4F9",
"C c #8EDAF8",
"Z c #77B8D1",
"A c #43ACD7",
/* pixels */
"                                ",
"             .+oXo+             ",
"          X09<%;;%->5$          ",
"        o,;kjxpdddvlb;,o        ",
"       #<hZCrrrrrrrryph<#       ",
"      X-lVMNrfuppuaewraj-X      ",
"      qtMVmfn4&1%&bveweat9      ",
"     $&ACmas-=X++$*Ovrwrd&$     ",
"     =kBmev1$      53cewa4=     ",
"     6sMBrl8       .>jrea4=     ",
"     *sNmrg-o       @Oxin%X     ",
"     0bywwfh2@.      5;:17      ",
"     #Oueweij:<,7X.   X#o       ",
"     .>jewweecgs4&2*@+          ",
"      #;nwewwerrfdzt:<6o        ",
"       @%suerewwwerecgb10.      ",
"        $8Otxcwrrewwerag:*.     ",
"         .#,-:hlpierwwwrp:=     ",
"            +@6>1:tvaewwrz-+    ",
"      X==o      o@,%tiewei3@    ",
"     @%k4<X        X>sywweh6    ",
"    .2lyft9         $&uewrs,    ",
"    o;drrd&$        +1prwet*    ",
"    +1xrwwtq        #&uewak5    ",
"     8sywedO=      o>swwedO#    ",
"     7OpwwegO,@$X#5-hiewaj2.    ",
"     .8kuwwept3&&:bzfewagO7     ",
"      X<hpfwreiuuiyreacz:*      ",
"       $23ndcfaaaafiuxtO6.      ",
"        +*%3tlzggznjkO>@        ",
"          o=q21;;%->*#.         ",
"             .oXXo+.            "
};
