/* XPM */
static char *_330bd55912d410292d3bc88daa3fb0bRovnJAVV6MVQSuIv[] = {
/* columns rows colors chars-per-pixel */
"32 32 232 2 ",
"   c #020202",
".  c #0B0200",
"X  c #010B05",
"o  c #0E0B07",
"O  c #03010B",
"+  c #03090E",
"@  c #0C0B0B",
"#  c #0E0309",
"$  c #120200",
"%  c #130C06",
"&  c #180C0A",
"*  c #0F110C",
"=  c #16110D",
"-  c #000211",
";  c #000818",
":  c #050818",
">  c #0E1113",
",  c #0D161B",
"<  c #141213",
"1  c #1C1612",
"2  c #1C1B1A",
"3  c #18191A",
"4  c #341C0F",
"5  c #3B1E0B",
"6  c #3A1606",
"7  c #231E14",
"8  c #211E1A",
"9  c #341F12",
"0  c #351C19",
"q  c #3C1F18",
"w  c #3C240D",
"e  c #3D290C",
"r  c #2F231B",
"t  c #262118",
"y  c #342415",
"u  c #3D2414",
"i  c #3C2B14",
"p  c #35241B",
"a  c #3B2419",
"s  c #3C2A1C",
"d  c #312A1A",
"f  c #121C21",
"g  c #231E22",
"h  c #1A2423",
"j  c #272929",
"k  c #362423",
"l  c #3D2A21",
"z  c #392A26",
"x  c #2B383A",
"c  c #39373C",
"v  c #441D0B",
"b  c #4D1F00",
"n  c #531F00",
"m  c #401F10",
"M  c #442306",
"N  c #492407",
"B  c #4C2906",
"V  c #44240C",
"C  c #4C250D",
"Z  c #442B0C",
"A  c #4C2A0C",
"S  c #5A2503",
"D  c #542A04",
"F  c #5C2C03",
"G  c #53270C",
"H  c #542B0B",
"J  c #5C2D0C",
"K  c #552708",
"L  c #4E300E",
"P  c #5B310B",
"I  c #58320B",
"U  c #432613",
"Y  c #4B2614",
"T  c #452B14",
"R  c #4C2B13",
"E  c #43261B",
"W  c #4A2619",
"Q  c #432B1B",
"!  c #4A2C1B",
"~  c #532C13",
"^  c #5A2D14",
"/  c #532B19",
"(  c #552918",
")  c #4C3214",
"_  c #4B311D",
"`  c #443017",
"'  c #543213",
"]  c #593313",
"[  c #50321A",
"{  c #5C341A",
"}  c #5E381C",
"|  c #523B12",
" . c #652C0B",
".. c #632B06",
"X. c #63330C",
"o. c #6A350B",
"O. c #6D3B0D",
"+. c #663606",
"@. c #7C3C05",
"#. c #733509",
"$. c #743C0C",
"%. c #7A3B0A",
"&. c #773500",
"*. c #652E13",
"=. c #643414",
"-. c #6B3413",
";. c #633914",
":. c #6D3A13",
">. c #66361B",
",. c #6A321A",
"<. c #64391A",
"1. c #6E3A1B",
"2. c #723712",
"3. c #743B17",
"4. c #7C3E14",
"5. c #733D1E",
"6. c #7C3D1B",
"7. c #402720",
"8. c #432D21",
"9. c #483423",
"0. c #543020",
"q. c #673B22",
"w. c #773D24",
"e. c #7D430C",
"r. c #76410F",
"t. c #734213",
"y. c #7D4214",
"u. c #7B4A16",
"i. c #75421C",
"p. c #7C421B",
"a. c #7E4B1C",
"s. c #684022",
"d. c #754421",
"f. c #7C4323",
"g. c #7D4B25",
"h. c #744229",
"j. c #7D422A",
"k. c #7D4828",
"l. c #714133",
"z. c #813C07",
"x. c #8A3D06",
"c. c #833E0B",
"v. c #8D3E0B",
"b. c #91380E",
"n. c #823E14",
"m. c #833D1A",
"M. c #8F3F1A",
"N. c #953F1C",
"B. c #854205",
"V. c #8C4003",
"C. c #83430C",
"Z. c #8C430C",
"A. c #8F4B0C",
"S. c #93440D",
"D. c #934A0E",
"F. c #9B4B0C",
"G. c #9D4706",
"H. c #844313",
"J. c #8B4413",
"K. c #844917",
"L. c #8B4914",
"P. c #82441C",
"I. c #8C451B",
"U. c #854A1B",
"Y. c #8B4B1D",
"T. c #944615",
"R. c #9A4614",
"E. c #944D12",
"W. c #9B4B14",
"Q. c #93471E",
"!. c #934C1C",
"~. c #9C4D1D",
"^. c #9A5315",
"/. c #9D531A",
"(. c #955019",
"). c #A34B0D",
"_. c #AC4C0C",
"`. c #A0420F",
"'. c #A5510C",
"]. c #AB520D",
"[. c #B3570E",
"{. c #A14B14",
"}. c #A54E19",
"|. c #AD4510",
" X c #B34F1B",
".X c #A65515",
"XX c #AC5213",
"oX c #A3531C",
"OX c #A9571B",
"+X c #B95615",
"@X c #B35914",
"#X c #BB5B16",
"$X c #B25B1C",
"%X c #BA5C1C",
"&X c #B6561D",
"*X c #BD6214",
"=X c #B4611C",
"-X c #BB631A",
";X c #834423",
":X c #8C4426",
">X c #844A22",
",X c #8B4B24",
"<X c #8A492B",
"1X c #904623",
"2X c #924A23",
"3X c #9A4B22",
"4X c #934D2A",
"5X c #954A2C",
"6X c #895026",
"7X c #965121",
"8X c #9D5422",
"9X c #94512B",
"0X c #9F5926",
"qX c #874932",
"wX c #9A5B30",
"eX c #A45221",
"rX c #A65B21",
"tX c #A65828",
"yX c #AE5922",
"uX c #B15C2A",
"iX c #B25723",
"pX c #B66323",
"aX c #BD6625",
"sX c #C15F14",
"dX c #C65E1E",
"fX c #C26316",
"gX c #C3641C",
"hX c #C96B1E",
"jX c #C7651A",
"kX c #C65C23",
"lX c #C76423",
"zX c #CA6827",
/* pixels */
". aX:.I.hX].dX:.U.zXXX%X3.Y.dX+X%Xt.U.zX X=X$.;XlX@X%X@.I.hX'.. ",
"  P U M 2.,.J A T -.q.+.w U X.] -.T T X.=.+.Z E #.] o.w E o.q.- ",
"  4X5.i.q.t g.6.f.,.E 4.i.h.1.a ;X5.3.5.w P.j.w.q.p m.f.l.{ r   ",
". #XE.F.T.R OXF.F.T.C /.^.W.S.A ^.}.).C.' 8XW.'.G.H 8XG.).E.Y . ",
"; Z N Q R v T U U J s ) y U J y L u 5 ' y T y M _ y / M V A Y - ",
". *X>.m.gXoX+X>.4.lXF.@X-.;XkX.X&XP 6XkX|.=X+.;XsX].iX:.P.hXF.  ",
"  K i Q  ...*.u Q J s.F u Q =.'  .i i *.=.F i s <.' F y l F -.O ",
"  7Xh.p.d.a U.;Xw.w.4 Y.P.w.5.w I.;Xp.s.u ,Xf.;X6.u 1XP.j.i.9 O ",
". $XL.A.A.B 8XT.F.Z./ /.F.S.Z.T F.W.R.K.B oXS.D.C.A }.F.E.B.M   ",
"  ~ u V R e ~ E w ~ T B a Z J Q ' u u ~ ! B u a ^ i ~ u q ' R O ",
"O @XX.>XlX.X[.X.j.gX}.pX>.6.jX}.yX;.I.zX).@XO.;X-X].uXX.U.gX).  ",
"  J E U ^ ~ J Q s X.~ J p !  .R ^ a E J ~ H a a J L D i 7.D =.O ",
"$ !.f.,Xi.V 6XP.p.6.V P.>Xp.y.U Y.<Xp.i.Y 6X;Xk.j.u !.Y.qXk.6 . ",
"- _.L.B.x.~ ~.S.R.c.( oXZ.J.Z.W F.x.R.y.M {.Z.S.c.Y OXV.Z.c.q O ",
"  ~ W V [ 8.R v w { T H Q e ^ s R W u { 8.' m s ;.s G V Q | `   ",
"  =X+.U.gX).#XO.k.fXXX[.;.>XfX].yXO.H.gXXX].$.;XsXXXuX-.P.*X).. ",
"O D a u ' T H u E G T F a k { T ~ y Q H R I 9 s ^ B ) V u ~ / O ",
". oX:X5Xp.T 7XN.;X;XC 7X4X2Xn.T 9X2XM.<XY !.4X5Xj.T 9XQ.;X<X5 . ",
"  rXH.C.c.S !.a.H.r.e Y.@.c.z.Z L.Z.v.4.V !.@.Z.b.V J.Z.B.v.0 O ",
"+ B a E } ) A V C <.8.] Q E =.R >.y Z :.( ^ 8.e } R X.u z ;./   ",
". @X3.Z.fX/.%X;.H.%X/.%X2.f.aXXXXX:.u.*X_.&X:.u.#X]..X%.H.-XW.  ",
"O R e y R C T M s A 0.n w s A Q D s s C _ H 9 a ( T Y a d Y 0.O ",
"O &X:X3XI.W eX9X>X,XC tXI.,XY.Y 8X2X1X<XC 0X2X5X>XM <X3X!.,X4 - ",
". D.e.t.O.B U.@.Z.#.U y.K.@.@.U Z.c.B.O.V C.H.c.#.V p.n.%.@.v . ",
"O X.i 8.=.{ P M Y 1.! } Y 7.=.] P T Q :.' } w Q 1.[ ;.A l >.{   ",
"  OXo.L.sX}.iX<.e.-X.X@X&.t.pXXX$X#.U.sX).rX$.H.#X].rXo.4.jX).O ",
"O ^ a 0 Y i T U l Y 8.U U z U a Y a p G T Y a p ~ 5 ' E k Y Y   ",
". $X4X8XK.! .XQ.!.Y.b wX~.Q.!.G eXoX7X>XK oXW.4XL.E /.{.!.Y.r . ",
"  (.6.V.e.U L.;XC.y.S Y.@.C.y.H J.c.4.d.T L.x.i.y._ Y.4.n.Z.p   ",
". & . # < X * & < < < o < < > > < < @ % , o o + o % $ < @ . = . ",
"X @ x x j c z f O O   o O   O         $ O 2 2 j 8 1 2 8 2 h + O ",
". O t 7 2 g h <               .   o   . ; 1 1 3 , 3 3 f > 7   . "
};
