/* XPM */
static char *_d2bbd10c3704294b9be2ce047bb58a10clLAGs5hmpI6tFT[] = {
/* columns rows colors chars-per-pixel */
"32 32 95 2 ",
"   c #47704C",
".  c black",
"X  c #0E6079",
"o  c black",
"O  c black",
"+  c #01090A",
"@  c #062D38",
"#  c black",
"$  c #041318",
"%  c black",
"&  c black",
"*  c #072028",
"=  c black",
"-  c #07171C",
";  c #093D4C",
":  c #0B4D61",
">  c black",
",  c black",
"<  c black",
"1  c black",
"2  c #000202",
"3  c #07313D",
"4  c #0C5165",
"5  c black",
"6  c black",
"7  c #030C0E",
"8  c black",
"9  c #061215",
"0  c #426B77",
"q  c #0B485B",
"w  c black",
"e  c #07242D",
"r  c #000001",
"t  c #083341",
"y  c #0D596F",
"u  c #0A4151",
"i  c #083846",
"p  c #0A4556",
"a  c None",
"s  c #1D2D32",
"d  c #33525C",
"f  c black",
"g  c #010405",
"h  c #385D68",
"j  c #05242D",
"k  c #020F13",
"l  c #041C23",
"z  c #1C4753",
"x  c #326F81",
"c  c #22363C",
"v  c #3A5D67",
"b  c #253B41",
"n  c #22363C",
"m  c #2C464F",
"M  c #273E45",
"N  c #1CBBEA",
"B  c #1CBEEE",
"V  c #1CBDED",
"C  c #1CBCEB",
"Z  c #10718E",
"A  c #1CBCEC",
"S  c #19ACD7",
"D  c #83D3EB",
"F  c #18A2CB",
"G  c #1BBAE9",
"H  c #1BAFDA",
"J  c #1593B8",
"K  c #1DC0F0",
"L  c #1382A2",
"P  c #1BB5E3",
"I  c #80D1EA",
"U  c #1796BC",
"Y  c #18A0C9",
"T  c #1DB8E6",
"R  c #1486A8",
"E  c #51C8EB",
"W  c #61A7BC",
"Q  c #7CC8DF",
"!  c #0B4D60",
"~  c #71CFEB",
"^  c #3BC4EC",
"/  c #1BB4E2",
"(  c #1AA5CE",
")  c #1590B3",
"_  c #4A8091",
"`  c #71B7CC",
"'  c #568C9B",
"]  c #4697AF",
"[  c #53B5D3",
"{  c #5F99AA",
"}  c #19A6CF",
"|  c #5CBDDA",
" . c #78C2D8",
".. c #65CAE9",
"X. c #177793",
/* pixels */
"                                                                ",
"                                                                ",
"                                                                ",
"  o . . . . o             1 . . . . O             o . . . . ,   ",
"  = t X X ! $             2 u X X u r           % - v 0 0 c w   ",
"  5 4 V B H @ O         % - U K K J $           , b Q D I d 6   ",
"  O @ S C G : #         1 3 H C C S @ O         8 h I I ` s >   ",
"    9 ) V B Z =         5 4 N N N G : #         g _ D D { 7     ",
"    r a B V J $         2 Z B N N B Z =       % - W D D 0 f     ",
"    6 p T C S @ O     % - U V N N V J $       1 3 | I Q m o     ",
"    > e } A G : #     1 3 H C A A C S @ O     5 4 ..D ` * &     ",
"      7 R B B Z =     5 4 N A F F A G : #     2 X.~ D ' +       ",
"      f X V V J $     2 Z B V y y V B Z =   % - U ~ D 0 .       ",
"      o ; / C S @ O   $ U B P t t P B J $   1 3 H ~ Q M ,       ",
"      & * Y V G : # O @ H V Y l l Y V S @ O 5 4 V I W - %       ",
"        + L B B Z r # 4 N B L + + L B G : # = Z ^ I ' g         ",
"        8 y C V J 9 2 Z B V X . . X V B Z = $ J ^ I h 5         ",
"        , 3 H A S @ k U B / ; o o ; / B J k @ S ^  .n 1         ",
"        % - U V G q j H V Y * & & * Y V H j q G E W $ %         ",
"          2 Z B B Z ! N B L +     + L B N ! Z B E _ =           ",
"          # : G C S Y C V X <     < X V C Y S C E d #           ",
"          O @ S C C A N P ; o     o ; P N A C C [ s O           ",
"            9 ) V N N A Y * &     & * Y A N N B ] 9             ",
"            w a B N N B L +         + L B N N B x w             ",
"            6 p T N N V X <         < X V N N T z 6             ",
"            > e ( A N P ; o         o ; P N A ( e >             ",
"              7 R K K F * &         & * F K K R 7               ",
"              < i X X q +             + q X X i <               ",
"              > 8 . . . ,             , . . . 8 >               ",
"                                                                ",
"                                                                ",
"                                                                "
};
